<svg width="66" height="27" viewBox="0 0 66 27" fill="none" xmlns="http://www.w3.org/2000/svg">
<g filter="url(#filter0_d)">
<path d="M14.056 18.384C12.28 18.384 10.68 18.016 9.256 17.28C7.832 16.528 6.712 15.488 5.896 14.16C5.096 12.816 4.696 11.296 4.696 9.6C4.696 7.904 5.096 6.392 5.896 5.064C6.712 3.72 7.832 2.68 9.256 1.944C10.68 1.192 12.28 0.816 14.056 0.816C15.688 0.816 17.144 1.104 18.424 1.68C19.704 2.256 20.76 3.088 21.592 4.176L18.016 7.368C16.976 6.056 15.752 5.4 14.344 5.4C13.16 5.4 12.208 5.784 11.488 6.552C10.768 7.304 10.408 8.32 10.408 9.6C10.408 10.88 10.768 11.904 11.488 12.672C12.208 13.424 13.16 13.8 14.344 13.8C15.752 13.8 16.976 13.144 18.016 11.832L21.592 15.024C20.76 16.112 19.704 16.944 18.424 17.52C17.144 18.096 15.688 18.384 14.056 18.384ZM56.1102 18L56.0622 10.344L52.4142 16.488H49.9182L46.2702 10.608V18H41.1102V1.2H45.7662L51.2382 10.152L56.5662 1.2H61.2222L61.2702 18H56.1102Z" fill="white"/>
<path d="M30.4274 13.776H28.8914V18H23.2274V1.2H31.3154C32.8674 1.2 34.2194 1.456 35.3714 1.968C36.5234 2.48 37.4114 3.216 38.0354 4.176C38.6594 5.136 38.9714 6.256 38.9714 7.536C38.9714 8.736 38.6994 9.784 38.1554 10.68C37.6114 11.576 36.8274 12.288 35.8034 12.816L39.3314 18H33.2834L30.4274 13.776ZM33.2594 7.536C33.2594 6.912 33.0674 6.432 32.6834 6.096C32.2994 5.744 31.7234 5.568 30.9554 5.568H28.8914V9.504H30.9554C31.7234 9.504 32.2994 9.336 32.6834 9C33.0674 8.648 33.2594 8.16 33.2594 7.536Z" fill="#28A798"/>
</g>
<defs>
<filter id="filter0_d" x="0.695984" y="0.815979" width="64.5742" height="25.568" filterUnits="userSpaceOnUse" color-interpolation-filters="sRGB">
<feFlood flood-opacity="0" result="BackgroundImageFix"/>
<feColorMatrix in="SourceAlpha" type="matrix" values="0 0 0 0 0 0 0 0 0 0 0 0 0 0 0 0 0 0 127 0"/>
<feOffset dy="4"/>
<feGaussianBlur stdDeviation="2"/>
<feColorMatrix type="matrix" values="0 0 0 0 0 0 0 0 0 0 0 0 0 0 0 0 0 0 0.25 0"/>
<feBlend mode="normal" in2="BackgroundImageFix" result="effect1_dropShadow"/>
<feBlend mode="normal" in="SourceGraphic" in2="effect1_dropShadow" result="shape"/>
</filter>
</defs>
</svg>
